<mxfile host="app.diagrams.net" modified="2023-09-03T10:23:56.648Z" agent="Mozilla/5.0 (Windows NT 10.0; Win64; x64; rv:109.0) Gecko/20100101 Firefox/117.0" etag="kNW0Id1IA7o4IncH4Ju9" version="21.6.3" type="github">
  <diagram name="Page-1" id="LPAUG7l910gOR56Dg5c7">
    <mxGraphModel dx="1500" dy="809" grid="0" gridSize="10" guides="1" tooltips="1" connect="1" arrows="1" fold="1" page="0" pageScale="1" pageWidth="850" pageHeight="1100" math="0" shadow="0">
      <root>
        <mxCell id="0" />
        <mxCell id="1" parent="0" />
        <mxCell id="XOPN2DxCTOstCZgfu7k_-5" value="Input (rough data)" style="rounded=1;whiteSpace=wrap;html=1;sketch=1;hachureGap=4;jiggle=2;curveFitting=1;fontFamily=Architects Daughter;fontSource=https%3A%2F%2Ffonts.googleapis.com%2Fcss%3Ffamily%3DArchitects%2BDaughter;fontSize=20;" vertex="1" parent="1">
          <mxGeometry x="365" y="100" width="185" height="60" as="geometry" />
        </mxCell>
        <mxCell id="XOPN2DxCTOstCZgfu7k_-8" value="Average " style="rounded=1;whiteSpace=wrap;html=1;sketch=1;hachureGap=4;jiggle=2;curveFitting=1;fontFamily=Architects Daughter;fontSource=https%3A%2F%2Ffonts.googleapis.com%2Fcss%3Ffamily%3DArchitects%2BDaughter;fontSize=20;" vertex="1" parent="1">
          <mxGeometry x="365" y="200" width="185" height="60" as="geometry" />
        </mxCell>
        <mxCell id="XOPN2DxCTOstCZgfu7k_-9" value="" style="rounded=1;whiteSpace=wrap;html=1;sketch=1;hachureGap=4;jiggle=2;curveFitting=1;fontFamily=Architects Daughter;fontSource=https%3A%2F%2Ffonts.googleapis.com%2Fcss%3Ffamily%3DArchitects%2BDaughter;fontSize=20;" vertex="1" parent="1">
          <mxGeometry x="132.5" y="440" width="650" height="220" as="geometry" />
        </mxCell>
        <mxCell id="XOPN2DxCTOstCZgfu7k_-10" value="Signal" style="rounded=1;whiteSpace=wrap;html=1;sketch=1;hachureGap=4;jiggle=2;curveFitting=1;fontFamily=Architects Daughter;fontSource=https%3A%2F%2Ffonts.googleapis.com%2Fcss%3Ffamily%3DArchitects%2BDaughter;fontSize=20;" vertex="1" parent="1">
          <mxGeometry x="365" y="330" width="185" height="60" as="geometry" />
        </mxCell>
        <mxCell id="XOPN2DxCTOstCZgfu7k_-11" value="Noise" style="rounded=1;whiteSpace=wrap;html=1;sketch=1;hachureGap=4;jiggle=2;curveFitting=1;fontFamily=Architects Daughter;fontSource=https%3A%2F%2Ffonts.googleapis.com%2Fcss%3Ffamily%3DArchitects%2BDaughter;fontSize=20;" vertex="1" parent="1">
          <mxGeometry x="70" y="330" width="185" height="60" as="geometry" />
        </mxCell>
        <mxCell id="XOPN2DxCTOstCZgfu7k_-12" value="After Rad" style="rounded=1;whiteSpace=wrap;html=1;sketch=1;hachureGap=4;jiggle=2;curveFitting=1;fontFamily=Architects Daughter;fontSource=https%3A%2F%2Ffonts.googleapis.com%2Fcss%3Ffamily%3DArchitects%2BDaughter;fontSize=20;" vertex="1" parent="1">
          <mxGeometry x="660" y="330" width="185" height="60" as="geometry" />
        </mxCell>
        <mxCell id="XOPN2DxCTOstCZgfu7k_-13" value="" style="shape=flexArrow;endArrow=classic;html=1;rounded=0;sketch=1;hachureGap=4;jiggle=2;curveFitting=1;fontFamily=Architects Daughter;fontSource=https%3A%2F%2Ffonts.googleapis.com%2Fcss%3Ffamily%3DArchitects%2BDaughter;fontSize=16;exitX=0.5;exitY=1;exitDx=0;exitDy=0;" edge="1" parent="1" source="XOPN2DxCTOstCZgfu7k_-5" target="XOPN2DxCTOstCZgfu7k_-8">
          <mxGeometry width="50" height="50" relative="1" as="geometry">
            <mxPoint x="450" y="155" as="sourcePoint" />
            <mxPoint x="500" y="105" as="targetPoint" />
          </mxGeometry>
        </mxCell>
        <mxCell id="XOPN2DxCTOstCZgfu7k_-15" value="" style="shape=flexArrow;endArrow=classic;html=1;rounded=0;sketch=1;hachureGap=4;jiggle=2;curveFitting=1;fontFamily=Architects Daughter;fontSource=https%3A%2F%2Ffonts.googleapis.com%2Fcss%3Ffamily%3DArchitects%2BDaughter;fontSize=16;exitX=0.5;exitY=1;exitDx=0;exitDy=0;" edge="1" parent="1">
          <mxGeometry width="50" height="50" relative="1" as="geometry">
            <mxPoint x="457.21" y="390" as="sourcePoint" />
            <mxPoint x="457.21" y="430" as="targetPoint" />
          </mxGeometry>
        </mxCell>
        <mxCell id="XOPN2DxCTOstCZgfu7k_-17" value="" style="endArrow=classic;html=1;rounded=0;sketch=1;hachureGap=4;jiggle=2;curveFitting=1;fontFamily=Architects Daughter;fontSource=https%3A%2F%2Ffonts.googleapis.com%2Fcss%3Ffamily%3DArchitects%2BDaughter;fontSize=16;entryX=0.5;entryY=0;entryDx=0;entryDy=0;exitX=0.5;exitY=1;exitDx=0;exitDy=0;" edge="1" parent="1" source="XOPN2DxCTOstCZgfu7k_-8" target="XOPN2DxCTOstCZgfu7k_-11">
          <mxGeometry width="50" height="50" relative="1" as="geometry">
            <mxPoint x="450" y="260" as="sourcePoint" />
            <mxPoint x="500" y="210" as="targetPoint" />
          </mxGeometry>
        </mxCell>
        <mxCell id="XOPN2DxCTOstCZgfu7k_-18" value="" style="endArrow=classic;html=1;rounded=0;sketch=1;hachureGap=4;jiggle=2;curveFitting=1;fontFamily=Architects Daughter;fontSource=https%3A%2F%2Ffonts.googleapis.com%2Fcss%3Ffamily%3DArchitects%2BDaughter;fontSize=16;entryX=0.5;entryY=0;entryDx=0;entryDy=0;exitX=0.5;exitY=1;exitDx=0;exitDy=0;" edge="1" parent="1" source="XOPN2DxCTOstCZgfu7k_-8" target="XOPN2DxCTOstCZgfu7k_-12">
          <mxGeometry width="50" height="50" relative="1" as="geometry">
            <mxPoint x="460" y="270" as="sourcePoint" />
            <mxPoint x="173" y="340" as="targetPoint" />
          </mxGeometry>
        </mxCell>
        <mxCell id="XOPN2DxCTOstCZgfu7k_-19" value="" style="endArrow=classic;html=1;rounded=0;sketch=1;hachureGap=4;jiggle=2;curveFitting=1;fontFamily=Architects Daughter;fontSource=https%3A%2F%2Ffonts.googleapis.com%2Fcss%3Ffamily%3DArchitects%2BDaughter;fontSize=16;entryX=0.5;entryY=0;entryDx=0;entryDy=0;exitX=0.5;exitY=1;exitDx=0;exitDy=0;" edge="1" parent="1" source="XOPN2DxCTOstCZgfu7k_-8" target="XOPN2DxCTOstCZgfu7k_-10">
          <mxGeometry width="50" height="50" relative="1" as="geometry">
            <mxPoint x="470" y="280" as="sourcePoint" />
            <mxPoint x="183" y="350" as="targetPoint" />
          </mxGeometry>
        </mxCell>
        <mxCell id="XOPN2DxCTOstCZgfu7k_-21" value="" style="shape=flexArrow;endArrow=classic;html=1;rounded=0;sketch=1;hachureGap=4;jiggle=2;curveFitting=1;fontFamily=Architects Daughter;fontSource=https%3A%2F%2Ffonts.googleapis.com%2Fcss%3Ffamily%3DArchitects%2BDaughter;fontSize=16;exitX=0.5;exitY=1;exitDx=0;exitDy=0;entryX=0.25;entryY=0;entryDx=0;entryDy=0;" edge="1" parent="1" source="XOPN2DxCTOstCZgfu7k_-11" target="XOPN2DxCTOstCZgfu7k_-9">
          <mxGeometry width="50" height="50" relative="1" as="geometry">
            <mxPoint x="152" y="395" as="sourcePoint" />
            <mxPoint x="152" y="435" as="targetPoint" />
          </mxGeometry>
        </mxCell>
        <mxCell id="XOPN2DxCTOstCZgfu7k_-22" value="" style="shape=flexArrow;endArrow=classic;html=1;rounded=0;sketch=1;hachureGap=4;jiggle=2;curveFitting=1;fontFamily=Architects Daughter;fontSource=https%3A%2F%2Ffonts.googleapis.com%2Fcss%3Ffamily%3DArchitects%2BDaughter;fontSize=16;exitX=0.538;exitY=1.046;exitDx=0;exitDy=0;entryX=0.75;entryY=0;entryDx=0;entryDy=0;exitPerimeter=0;" edge="1" parent="1" source="XOPN2DxCTOstCZgfu7k_-12" target="XOPN2DxCTOstCZgfu7k_-9">
          <mxGeometry width="50" height="50" relative="1" as="geometry">
            <mxPoint x="724" y="401" as="sourcePoint" />
            <mxPoint x="856" y="451" as="targetPoint" />
          </mxGeometry>
        </mxCell>
      </root>
    </mxGraphModel>
  </diagram>
</mxfile>
